# xmcd
#
# Track frame offsets:
# 182
# 19135
# 41415
# 59947
# 80440
# 89730
# 108415
# 122895
# 134570
# 158070
#
# Disc length: 2269 seconds
#
#
# Revision: 0
# Processed by: cddbd v1.4PL0 Copyright (c) Steve Scherf et al.
# Submitted via: FreeRIP 2.40 
#
DISCID=8d08db0a
DTITLE=Howard Scott and Jimmy Witherspoon - American Blues
DYEAR=1995
DGENRE=Blues
TTITLE0=Ain't Nothin New About The Blues
TTITLE1=I Feel So Bad
TTITLE2=Please Mr. Howard
TTITLE3=Red and Whiskey
TTITLE4=All Day Long
TTITLE5=Black Gal
TTITLE6=Young Man's Blues
TTITLE7=You Ain't Gonna Worry My Life Anymore
TTITLE8=Roam and Ramble
TTITLE9=How Long
EXTD=
EXTT0=
EXTT1=
EXTT2=
EXTT3=
EXTT4=
EXTT5=
EXTT6=
EXTT7=
EXTT8=
EXTT9=
PLAYORDER=
